<svg width="37" height="37" viewBox="0 0 37 37" fill="none" xmlns="http://www.w3.org/2000/svg">
<path d="M10.1744 17.5709C10.1744 13.368 10.1744 11.2666 11.4748 9.96094C12.7753 8.65527 14.8683 8.65527 19.0544 8.65527H23.4944C27.6804 8.65527 29.7734 8.65527 31.074 9.96094C32.3744 11.2666 32.3744 13.3681 32.3744 17.5709V25.0007C32.3744 29.2036 32.3744 31.305 31.074 32.6107C29.7734 33.9163 27.6804 33.9163 23.4944 33.9163H19.0544C14.8683 33.9163 12.7753 33.9163 11.4748 32.6107C10.1744 31.305 10.1744 29.2036 10.1744 25.0007V17.5709Z" fill="url(#paint0_linear_14_51)"/>
<path opacity="0.5" d="M6.43117 4.88967C4.625 6.69585 4.625 9.60283 4.625 15.4168V18.5002C4.625 24.3141 4.625 27.2212 6.43117 29.0273C7.38324 29.9794 8.6412 30.4296 10.4695 30.6425C10.1744 29.3462 10.1744 27.5645 10.1744 25.0009V17.5712C10.1744 13.3683 10.1744 11.2668 11.4748 9.96115C12.7753 8.65548 14.8683 8.65548 19.0544 8.65548H23.4944C26.0411 8.65548 27.8131 8.65548 29.1031 8.94944C28.8913 7.1095 28.4413 5.84545 27.4854 4.88967C25.6794 3.0835 22.7723 3.0835 16.9583 3.0835C11.1443 3.0835 8.23736 3.0835 6.43117 4.88967Z" fill="#6D6FA4" fill-opacity="0.9"/>
<defs>
<linearGradient id="paint0_linear_14_51" x1="30.5088" y1="23.3683" x2="10.3859" y2="11.6841" gradientUnits="userSpaceOnUse">
<stop stop-color="#260EB6"/>
<stop offset="1" stop-color="#360D79" stop-opacity="0.73"/>
</linearGradient>
</defs>
</svg>
