<svg width="26" height="26" viewBox="0 0 26 26" fill="none" xmlns="http://www.w3.org/2000/svg">
<path d="M26 13C25.9888 13.8585 25.6428 14.6786 25.0357 15.2857C24.4286 15.8928 23.6085 16.2388 22.75 16.25C21.0296 16.2614 19.3829 16.9498 18.1664 18.1664C16.9498 19.3829 16.2614 21.0296 16.25 22.75C16.25 23.612 15.9076 24.4386 15.2981 25.0481C14.6886 25.6576 13.862 26 13 26C12.138 26 11.3114 25.6576 10.7019 25.0481C10.0924 24.4386 9.75 23.612 9.75 22.75C9.75 21.0261 9.06518 19.3728 7.84619 18.1538C6.62721 16.9348 4.97391 16.25 3.25 16.25C2.38805 16.25 1.5614 15.9076 0.951903 15.2981C0.342409 14.6886 0 13.862 0 13C0 12.138 0.342409 11.3114 0.951903 10.7019C1.5614 10.0924 2.38805 9.75 3.25 9.75C4.97391 9.75 6.62721 9.06518 7.84619 7.8462C9.06518 6.62721 9.75 4.97391 9.75 3.25C9.75 2.38805 10.0924 1.5614 10.7019 0.951903C11.3114 0.342409 12.138 0 13 0C13.862 0 14.6886 0.342409 15.2981 0.951903C15.9076 1.5614 16.25 2.38805 16.25 3.25C16.2614 4.9704 16.9498 6.61711 18.1664 7.83364C19.3829 9.05018 21.0296 9.73864 22.75 9.75C23.6085 9.76122 24.4286 10.1072 25.0357 10.7143C25.6428 11.3214 25.9888 12.1415 26 13Z" fill="url(#paint0_linear_8_19)"/>
<defs>
<linearGradient id="paint0_linear_8_19" x1="0" y1="13" x2="20" y2="17" gradientUnits="userSpaceOnUse">
<stop stop-color="#002CBF"/>
<stop offset="1" stop-color="#00CCA7"/>
</linearGradient>
</defs>
</svg>
