<?xml version="1.0" encoding="utf-8"?>
<!-- Generator: Adobe Illustrator 28.3.0, SVG Export Plug-In . SVG Version: 6.00 Build 0)  -->
<svg version="1.1" id="Capa_1" xmlns="http://www.w3.org/2000/svg" xmlns:xlink="http://www.w3.org/1999/xlink" x="0px" y="0px"
	 viewBox="0 0 26 26" style="enable-background:new 0 0 26 26;" xml:space="preserve">
<style type="text/css">
	.st0{fill:url(#SVGID_1_);}
	.st1{fill:url(#SVGID_00000083063404309624292470000006266343247070911875_);}
</style>
<linearGradient id="SVGID_1_" gradientUnits="userSpaceOnUse" x1="8.7841" y1="19.081" x2="20.2058" y2="16.7966" gradientTransform="matrix(1 0 0 -1 0 25.8898)">
	<stop  offset="0" style="stop-color:#002CBF"/>
	<stop  offset="1" style="stop-color:#00CCA7"/>
</linearGradient>
<path class="st0" d="M23.3,8.2c0,0.5-0.2,1-0.6,1.3c-0.3,0.3-0.8,0.5-1.3,0.6c-1,0-1.9,0.4-2.6,1.1c-0.7,0.7-1.1,1.6-1.1,2.6
	c0,0.5-0.2,1-0.5,1.3c-0.3,0.3-0.8,0.5-1.3,0.5c-0.5,0-1-0.2-1.3-0.5c-0.3-0.3-0.5-0.8-0.5-1.3c0-1-0.4-1.9-1.1-2.6
	c-0.7-0.7-1.6-1.1-2.6-1.1c-0.5,0-1-0.2-1.3-0.5C8.7,9.2,8.5,8.7,8.5,8.2c0-0.5,0.2-1,0.5-1.3c0.3-0.3,0.8-0.5,1.3-0.5
	c1,0,1.9-0.4,2.6-1.1c0.7-0.7,1.1-1.6,1.1-2.6c0-0.5,0.2-1,0.5-1.3C15,1,15.4,0.8,15.9,0.8c0.5,0,1,0.2,1.3,0.5
	c0.3,0.3,0.5,0.8,0.5,1.3c0,1,0.4,1.9,1.1,2.6c0.7,0.7,1.6,1.1,2.6,1.1c0.5,0,1,0.2,1.3,0.6C23.1,7.3,23.3,7.7,23.3,8.2z"/>
<linearGradient id="SVGID_00000161626255162668698920000009788460034046161073_" gradientUnits="userSpaceOnUse" x1="2.8012" y1="5.2888" x2="8.7193" y2="4.1052" gradientTransform="matrix(1 0 0 -1 0 25.8898)">
	<stop  offset="0" style="stop-color:#002CBF"/>
	<stop  offset="1" style="stop-color:#00CCA7"/>
</linearGradient>
<path style="fill:url(#SVGID_00000161626255162668698920000009788460034046161073_);" d="M10.3,21.3c0,0.3-0.1,0.5-0.3,0.7
	c-0.2,0.2-0.4,0.3-0.7,0.3c-0.5,0-1,0.2-1.4,0.6c-0.4,0.4-0.6,0.8-0.6,1.4c0,0.3-0.1,0.5-0.3,0.7c-0.2,0.2-0.4,0.3-0.7,0.3
	S6,25.1,5.8,24.9c-0.2-0.2-0.3-0.4-0.3-0.7c0-0.5-0.2-1-0.6-1.4c-0.4-0.4-0.8-0.6-1.4-0.6c-0.3,0-0.5-0.1-0.7-0.3
	c-0.2-0.2-0.3-0.4-0.3-0.7c0-0.3,0.1-0.5,0.3-0.7c0.2-0.2,0.4-0.3,0.7-0.3c0.5,0,1-0.2,1.4-0.6c0.4-0.4,0.6-0.8,0.6-1.4
	c0-0.3,0.1-0.5,0.3-0.7c0.2-0.2,0.4-0.3,0.7-0.3s0.5,0.1,0.7,0.3c0.2,0.2,0.3,0.4,0.3,0.7c0,0.5,0.2,1,0.6,1.4
	c0.4,0.4,0.8,0.6,1.4,0.6c0.3,0,0.5,0.1,0.7,0.3C10.2,20.8,10.3,21.1,10.3,21.3z"/>
</svg>
