<?xml version="1.0" encoding="utf-8"?>
<!-- Generator: Adobe Illustrator 28.3.0, SVG Export Plug-In . SVG Version: 6.00 Build 0)  -->
<svg version="1.1" id="Capa_1" xmlns="http://www.w3.org/2000/svg" xmlns:xlink="http://www.w3.org/1999/xlink" x="0px" y="0px"
	 viewBox="0 0 800 800" style="enable-background:new 0 0 800 800;" xml:space="preserve">
<style type="text/css">
	.st0{fill:#FF9900;}
	.st1{fill:#5D8CBA;}
</style>
<path class="st0" d="M654.5,494.4c28.2-3.4,90.3-10.8,101.3,3.4c11.1,14-12.4,72.8-22.9,98.9c-3.2,7.9,3.7,11.1,10.8,5
	c46.3-39,58.4-120.5,48.9-132.4c-9.5-11.6-90.8-21.6-140.3,13.2C644.7,488.1,646.1,495.5,654.5,494.4L654.5,494.4z"/>
<path class="st0" d="M399.2,637.1c108.2,0,233.9-34,320.5-98.1c14.2-10.5,1.8-26.6-12.6-20c-97.1,41.1-202.6,61.2-298.7,61.2
	c-142.4,0-280-39.3-391.6-104.2c-9.7-5.8-17.1,4.2-9,11.6C111.1,580.9,247.6,637.1,399.2,637.1L399.2,637.1z"/>
<path class="st1" d="M227.4,335.1c0,9.8,1.1,17.7,2.9,23.5c2.3,6.5,5.2,12.9,8.4,19c1.3,2.1,1.8,4.2,1.8,6.1c0,2.6-1.6,5.3-5,7.9
	l-16.6,11.1c-2.4,1.6-4.7,2.4-6.8,2.4c-2.6,0-5.3-1.3-7.9-3.7c-3.5-3.8-6.7-8-9.5-12.4c-2.9-5.1-5.7-10.3-8.2-15.6
	c-20.5,24.3-46.3,36.4-77.4,36.4c-22.1,0-39.7-6.3-52.6-19c-12.9-12.7-19.5-29.5-19.5-50.6c0-22.4,7.9-40.6,23.9-54.3
	c16.1-13.7,37.4-20.6,64.5-20.6c8.9,0,18.2,0.8,27.9,2.1c9.7,1.3,19.7,3.4,30.3,5.8v-19.3c0-20-4.2-34-12.4-42.2
	c-8.4-8.2-22.6-12.1-42.9-12.1c-9.2,0-18.7,1.1-28.4,3.4c-9.7,2.3-19.2,5.3-28.4,9c-3,1.3-6.1,2.5-9.2,3.4c-1.8,0.5-3.2,0.8-4.2,0.8
	c-3.7,0-5.5-2.6-5.5-8.2v-12.9c0-4.2,0.5-7.4,1.8-9.2c1.3-1.9,3.7-3.7,7.4-5.5c9.2-4.7,20.3-8.7,33.2-11.9c12.9-3.4,26.6-5,41.1-5
	c31.3,0,54.2,7.1,68.9,21.4c14.5,14.2,21.8,35.9,21.8,64.9v85.5H227.4z M120.5,375.2c8.7,0,17.6-1.6,27.1-4.7
	c9.5-3.2,17.9-9,25-16.9c4.2-5,7.4-10.5,8.9-16.9c1.6-6.3,2.6-14,2.6-22.9v-11.1c-8-1.9-16.1-3.4-24.2-4.5c-8.2-1-16.5-1.6-24.7-1.6
	c-17.6,0-30.5,3.4-39.2,10.5c-8.7,7.1-12.9,17.1-12.9,30.3c0,12.4,3.2,21.6,9.7,28C99.2,372,108.4,375.2,120.5,375.2L120.5,375.2z
	 M331.8,403.7c-4.7,0-7.9-0.8-10-2.6c-2.1-1.6-3.9-5.3-5.5-10.3l-61.8-203.9c-1.6-5.3-2.4-8.7-2.4-10.5c0-4.2,2.1-6.6,6.3-6.6h25.8
	c5,0,8.4,0.8,10.3,2.6c2.1,1.6,3.7,5.3,5.3,10.3L344,357.3L385,182.7c1.3-5.3,2.9-8.7,5-10.3s5.8-2.6,10.5-2.6h21.1
	c5,0,8.4,0.8,10.5,2.6c2.1,1.6,3.9,5.3,5,10.3l41.6,176.7l45.5-176.7c1.6-5.3,3.4-8.7,5.3-10.3c2.1-1.6,5.5-2.6,10.3-2.6h24.5
	c4.2,0,6.6,2.1,6.6,6.6c0,1.3-0.3,2.6-0.5,4.2c-0.4,2.2-1,4.5-1.8,6.6L505,391c-1.6,5.3-3.4,8.7-5.5,10.3c-2.1,1.6-5.5,2.6-10,2.6
	h-22.6c-5,0-8.4-0.8-10.5-2.6s-3.9-5.3-5-10.5l-40.8-170.1L370,390.5c-1.3,5.3-2.9,8.7-5,10.5c-2.1,1.8-5.8,2.6-10.5,2.6
	L331.8,403.7L331.8,403.7z M670,410.8c-13.7,0-27.4-1.6-40.5-4.7c-13.2-3.2-23.4-6.6-30.3-10.6c-4.2-2.4-7.1-5-8.2-7.4
	c-1-2.3-1.6-4.8-1.6-7.4v-13.5c0-5.5,2.1-8.2,6.1-8.2c1.6,0,3.2,0.3,4.7,0.8c1.6,0.5,3.9,1.6,6.6,2.6c9.3,4.1,19,7.2,28.9,9.2
	c10.5,2.1,20.8,3.2,31.3,3.2c16.6,0,29.5-2.9,38.4-8.7c8.9-5.8,13.7-14.2,13.7-25.1c0-7.4-2.4-13.4-7.1-18.5
	c-4.7-5-13.7-9.5-26.6-13.7l-38.2-11.9c-19.2-6.1-33.4-15-42.1-26.9c-8.7-11.6-13.2-24.5-13.2-38.2c0-11.1,2.4-20.8,7.1-29.3
	s11.1-15.8,18.9-21.6c7.9-6.1,16.8-10.5,27.4-13.7c10.5-3.2,21.6-4.5,33.2-4.5c5.8,0,11.8,0.3,17.6,1.1c6.1,0.8,11.6,1.8,17.1,2.9
	c5.3,1.3,10.3,2.6,15,4.2c4.7,1.6,8.4,3.2,11.1,4.8c3.7,2.1,6.3,4.2,7.9,6.6c1.6,2.1,2.4,5,2.4,8.7v12.4c0,5.5-2.1,8.4-6.1,8.4
	c-2.1,0-5.5-1.1-10-3.2c-15-6.9-31.8-10.3-50.5-10.3c-15,0-26.8,2.4-35,7.4c-8.2,5-12.4,12.7-12.4,23.5c0,7.4,2.6,13.7,7.9,18.7
	s15,10,28.9,14.5l37.4,11.9c18.9,6.1,32.6,14.5,40.8,25.3c8.2,10.8,12.1,23.2,12.1,36.9c0,11.3-2.4,21.6-6.8,30.6
	c-4.7,9-11.1,16.9-19.2,23.2c-8.2,6.6-17.9,11.3-29.2,14.8C695.8,409,683.4,410.8,670,410.8L670,410.8z"/>
</svg>
